# xmcd
#
# Track frame offsets:
#	150
#	22104
#	44165
#	63532
#	77567
#	105989
#	121641
#	145975
#	167506
#
# Disc length: 2465 seconds
#
# Revision: 1
# Processed by: cddbd v1.5.1PL2 Copyright (c) Steve Scherf et al.
# Submitted via: EasyCDDAExtractor 8.0.2.1
#
DISCID=72099f09
DTITLE=Dio - Palatrussardi Milan 16-11-87 Disc 2
DYEAR=1987
DGENRE=Hard Rock
TTITLE0=Drum Solo
TTITLE1=Heaven and Hell
TTITLE2=Man On The Silver Mountain
TTITLE3=All The Fools Sailed Away
TTITLE4=Keyboard Solo
TTITLE5=All The Fools Sailed Away Reprise
TTITLE6=Sunset Superman
TTITLE7=Night People
TTITLE8=Rainbow In The Dark
EXTD=
EXTT0=
EXTT1=
EXTT2=
EXTT3=
EXTT4=
EXTT5=
EXTT6=
EXTT7=
EXTT8=
PLAYORDER=
